<?xml version="1.0" encoding="UTF-8" standalone="no"?>
<svg
   xmlns:dc="http://purl.org/dc/elements/1.1/"
   xmlns:cc="http://creativecommons.org/ns#"
   xmlns:rdf="http://www.w3.org/1999/02/22-rdf-syntax-ns#"
   xmlns:svg="http://www.w3.org/2000/svg"
   xmlns="http://www.w3.org/2000/svg"
   version="1.1"
   id="svg2"
   viewBox="0 0 128 128"
   height="128"
   width="128">
  <defs
     id="defs4" />
  <metadata
     id="metadata7">
    <rdf:RDF>
      <cc:Work
         rdf:about="">
        <dc:format>image/svg+xml</dc:format>
        <dc:type
           rdf:resource="http://purl.org/dc/dcmitype/StillImage" />
        <dc:title></dc:title>
      </cc:Work>
    </rdf:RDF>
  </metadata>
  <g
     transform="translate(0,-924.36216)"
     id="layer1">
    <g
       id="g4800"
       transform="translate(0,924.36214)">
      <rect
         rx="2.2458501"
         y="4.2500224"
         x="4.25"
         height="120"
         width="120"
         id="rect4704"
         style="fill:none;fill-opacity:1;stroke:#333333;stroke-width:0.5;stroke-miterlimit:4;stroke-dasharray:none;stroke-opacity:1" />
      <rect
         ry="2"
         rx="2"
         y="8.2500229"
         x="32.25"
         height="7.9999828"
         width="88"
         id="rect4706"
         style="fill:none;fill-opacity:1;stroke:#333333;stroke-width:0.5;stroke-miterlimit:4;stroke-dasharray:none;stroke-opacity:1" />
      <path
         id="path4708"
         d="m 12.25,8.25003 -3.9999998,4 3.9999998,4 -3.9999998,-4 7.9999998,0 -7.9999998,0 z"
         style="fill:none;fill-rule:evenodd;stroke:#333333;stroke-width:0.5;stroke-linecap:butt;stroke-linejoin:round;stroke-miterlimit:4;stroke-dasharray:none;stroke-opacity:1" />
      <path
         id="path4712"
         d="m 4.2500002,20.25003 119.9999998,0"
         style="fill:none;fill-rule:evenodd;stroke:#333333;stroke-width:0.5;stroke-linecap:butt;stroke-linejoin:miter;stroke-miterlimit:4;stroke-dasharray:none;stroke-opacity:1" />
      <path
         style="fill:none;fill-rule:evenodd;stroke:#333333;stroke-width:0.5;stroke-linecap:butt;stroke-linejoin:round;stroke-miterlimit:4;stroke-dasharray:none;stroke-opacity:1"
         d="m 24.00001,8.25003 4,4 -4,4 4,-4 -8,0 8,0 z"
         id="path4825" />
    </g>
    <path
       id="path4839"
       d="m 4,956.36216 2,0 0,0 0,0"
       style="fill:none;fill-rule:evenodd;stroke:#333333;stroke-width:0.5;stroke-linecap:butt;stroke-linejoin:miter;stroke-opacity:1;stroke-miterlimit:4;stroke-dasharray:none" />
    <path
       id="path4841"
       d="m 8,954.36216 0,-4"
       style="fill:#333333;fill-rule:evenodd;stroke:#333333;stroke-width:0.5;stroke-linecap:butt;stroke-linejoin:miter;stroke-opacity:1;stroke-miterlimit:4;stroke-dasharray:none" />
    <path
       id="path4847"
       d="m 8,954.36218 c 0,1.10457 -0.8954305,2 -2,2"
       style="fill:none;fill-opacity:1;stroke:#333333;stroke-width:0.5;stroke-linejoin:round;stroke-miterlimit:4;stroke-dasharray:none;stroke-opacity:1" />
    <path
       id="path4849"
       d="m 8,950.36218 c 0,-1.10457 0.8954305,-2 2,-2"
       style="fill:none;fill-opacity:1;stroke:#333333;stroke-width:0.5;stroke-linejoin:round;stroke-miterlimit:4;stroke-dasharray:none;stroke-opacity:1" />
    <path
       id="path4853"
       d="m 10,948.36216 30,0"
       style="fill:none;fill-rule:evenodd;stroke:#333333;stroke-width:0.5;stroke-linecap:butt;stroke-linejoin:miter;stroke-miterlimit:4;stroke-dasharray:none;stroke-opacity:1" />
    <flowRoot
       transform="translate(0,924.36216)"
       style="color:#000000;font-style:normal;font-variant:normal;font-weight:normal;font-stretch:normal;font-size:10px;line-height:125%;font-family:Roboto;-inkscape-font-specification:'Roboto, Normal';text-align:start;letter-spacing:0px;word-spacing:0px;writing-mode:lr-tb;text-anchor:start;clip-rule:nonzero;display:inline;overflow:visible;visibility:visible;opacity:1;isolation:auto;mix-blend-mode:normal;color-interpolation:sRGB;color-interpolation-filters:linearRGB;solid-color:#000000;solid-opacity:1;fill:#333333;fill-opacity:1;fill-rule:nonzero;stroke:none;stroke-width:1px;stroke-linecap:butt;stroke-linejoin:miter;stroke-miterlimit:4;stroke-dasharray:none;stroke-dashoffset:0;stroke-opacity:1;color-rendering:auto;image-rendering:auto;shape-rendering:auto;text-rendering:auto;enable-background:accumulate"
       id="flowRoot4855"
       xml:space="preserve"><flowRegion
         id="flowRegion4857"><rect
           y="27"
           x="22"
           height="11"
           width="13"
           id="rect4859" /></flowRegion><flowPara
         id="flowPara4861">asdasdaddas</flowPara></flowRoot>    <flowRoot
       transform="translate(0,924.36216)"
       style="color:#000000;font-style:normal;font-variant:normal;font-weight:normal;font-stretch:normal;font-size:10px;line-height:125%;font-family:Roboto;-inkscape-font-specification:'Roboto, Normal';text-align:start;letter-spacing:0px;word-spacing:0px;writing-mode:lr-tb;text-anchor:start;clip-rule:nonzero;display:inline;overflow:visible;visibility:visible;opacity:1;isolation:auto;mix-blend-mode:normal;color-interpolation:sRGB;color-interpolation-filters:linearRGB;solid-color:#000000;solid-opacity:1;fill:#333333;fill-opacity:1;fill-rule:nonzero;stroke:none;stroke-width:1px;stroke-linecap:butt;stroke-linejoin:miter;stroke-miterlimit:4;stroke-dasharray:none;stroke-dashoffset:0;stroke-opacity:1;color-rendering:auto;image-rendering:auto;shape-rendering:auto;text-rendering:auto;enable-background:accumulate"
       id="flowRoot4867"
       xml:space="preserve"><flowRegion
         id="flowRegion4869"><rect
           y="24"
           x="19"
           height="11"
           width="22"
           id="rect4871" /></flowRegion><flowPara
         id="flowPara4873">sd</flowPara></flowRoot>    <flowRoot
       transform="translate(0,924.36216)"
       style="color:#000000;font-style:normal;font-variant:normal;font-weight:normal;font-stretch:normal;font-size:10px;line-height:125%;font-family:Roboto;-inkscape-font-specification:'Roboto, Normal';text-align:center;letter-spacing:0px;word-spacing:0px;writing-mode:lr-tb;text-anchor:middle;clip-rule:nonzero;display:inline;overflow:visible;visibility:visible;opacity:1;isolation:auto;mix-blend-mode:normal;color-interpolation:sRGB;color-interpolation-filters:linearRGB;solid-color:#000000;solid-opacity:1;fill:#333333;fill-opacity:1;fill-rule:nonzero;stroke:none;stroke-width:1px;stroke-linecap:butt;stroke-linejoin:miter;stroke-miterlimit:4;stroke-dasharray:none;stroke-dashoffset:0;stroke-opacity:1;color-rendering:auto;image-rendering:auto;shape-rendering:auto;text-rendering:auto;enable-background:accumulate"
       id="flowRoot4875"
       xml:space="preserve"><flowRegion
         id="flowRegion4877"><rect
           style="text-align:center;text-anchor:middle"
           y="28.149218"
           x="18.907341"
           height="10.589651"
           width="20.52467"
           id="rect4879" /></flowRegion><flowPara
         id="flowPara4881">dsdasddsfsdfsdf</flowPara><flowPara
         id="flowPara4883" /><flowPara
         id="flowPara4885" /><flowPara
         id="flowPara4887" /><flowPara
         id="flowPara4889" /></flowRoot>    <flowRoot
       transform="translate(0,924.36216)"
       style="color:#000000;font-style:normal;font-variant:normal;font-weight:normal;font-stretch:normal;font-size:10px;line-height:125%;font-family:Roboto;-inkscape-font-specification:'Roboto, Normal';text-align:start;letter-spacing:0px;word-spacing:0px;writing-mode:lr-tb;text-anchor:start;clip-rule:nonzero;display:inline;overflow:visible;visibility:visible;opacity:1;isolation:auto;mix-blend-mode:normal;color-interpolation:sRGB;color-interpolation-filters:linearRGB;solid-color:#000000;solid-opacity:1;fill:#333333;fill-opacity:1;fill-rule:nonzero;stroke:none;stroke-width:1px;stroke-linecap:butt;stroke-linejoin:miter;stroke-miterlimit:4;stroke-dasharray:none;stroke-dashoffset:0;stroke-opacity:1;color-rendering:auto;image-rendering:auto;shape-rendering:auto;text-rendering:auto;enable-background:accumulate"
       id="flowRoot4891"
       xml:space="preserve"><flowRegion
         id="flowRegion4893"><rect
           y="30.267147"
           x="13.593261"
           height="11.12876"
           width="41.665462"
           id="rect4895" /></flowRegion><flowPara
         id="flowPara4897">sdf----</flowPara></flowRoot>    <flowRoot
       style="fill:#333333;stroke:none;stroke-opacity:1;stroke-width:1px;stroke-linejoin:miter;stroke-linecap:butt;color:#000000;clip-rule:nonzero;display:inline;overflow:visible;visibility:visible;opacity:1;isolation:auto;mix-blend-mode:normal;color-interpolation:sRGB;color-interpolation-filters:linearRGB;solid-color:#000000;solid-opacity:1;fill-opacity:1;fill-rule:nonzero;stroke-miterlimit:4;stroke-dasharray:none;stroke-dashoffset:0;filter-blend-mode:normal;filter-gaussianBlur-deviation:0;color-rendering:auto;image-rendering:auto;shape-rendering:auto;text-rendering:auto;enable-background:accumulate;-inkscape-font-specification:'Roboto, Normal';font-family:Roboto;font-weight:normal;font-style:normal;font-stretch:normal;font-variant:normal;font-size:5px;text-anchor:start;text-align:start;writing-mode:lr;line-height:125%;letter-spacing:0px;word-spacing:0px;"
       id="flowRoot4907"
       xml:space="preserve"><flowRegion
         id="flowRegion4909"><rect
           style="font-size:5px;"
           y="24"
           x="8"
           height="24"
           width="40"
           id="rect4911" /></flowRegion><flowPara
         id="flowPara4913"></flowPara></flowRoot>    <flowRoot
       transform="translate(0,924.36216)"
       style="color:#000000;font-style:normal;font-variant:normal;font-weight:normal;font-stretch:normal;font-size:10px;line-height:125%;font-family:Roboto;-inkscape-font-specification:'Roboto, Normal';text-align:center;letter-spacing:0px;word-spacing:0px;writing-mode:lr-tb;text-anchor:middle;clip-rule:nonzero;display:inline;overflow:visible;visibility:visible;opacity:1;isolation:auto;mix-blend-mode:normal;color-interpolation:sRGB;color-interpolation-filters:linearRGB;solid-color:#000000;solid-opacity:1;fill:#333333;fill-opacity:1;fill-rule:nonzero;stroke:none;stroke-width:1px;stroke-linecap:butt;stroke-linejoin:miter;stroke-miterlimit:4;stroke-dasharray:none;stroke-dashoffset:0;stroke-opacity:1;color-rendering:auto;image-rendering:auto;shape-rendering:auto;text-rendering:auto;enable-background:accumulate"
       id="flowRoot4915"
       xml:space="preserve"><flowRegion
         id="flowRegion4917"><rect
           style="text-align:center;text-anchor:middle"
           ry="0"
           y="24"
           x="8"
           height="8"
           width="34"
           id="rect4919" /></flowRegion><flowPara
         style="font-size:5px;text-align:center;text-anchor:middle"
         id="flowPara4921">Leaderboard</flowPara></flowRoot>    <path
       style="fill:none;fill-opacity:1;stroke:#333333;stroke-width:0.5;stroke-linejoin:round;stroke-miterlimit:4;stroke-dasharray:none;stroke-opacity:1"
       d="m 40,948.36218 c 1.10457,0 2,0.89543 2,2"
       id="path4927" />
    <path
       style="fill:#333333;fill-rule:evenodd;stroke:#333333;stroke-width:0.5;stroke-linecap:butt;stroke-linejoin:miter;stroke-miterlimit:4;stroke-dasharray:none;stroke-opacity:1"
       d="m 42,954.36216 0,-4"
       id="path4929" />
    <path
       style="fill:none;fill-opacity:1;stroke:#333333;stroke-width:0.5;stroke-linejoin:round;stroke-miterlimit:4;stroke-dasharray:none;stroke-opacity:1"
       d="m 44,956.36216 c -1.10457,0 -2,-0.89543 -2,-2"
       id="path4931" />
    <path
       id="path4933"
       d="m 46,954.36216 c 0,1.10457 -0.89543,2 -2,2"
       style="fill:none;fill-opacity:1;stroke:#333333;stroke-width:0.5;stroke-linejoin:round;stroke-miterlimit:4;stroke-dasharray:none;stroke-opacity:1" />
    <path
       id="path4935"
       d="m 46,954.36216 0,-4"
       style="fill:#333333;fill-rule:evenodd;stroke:#333333;stroke-width:0.5;stroke-linecap:butt;stroke-linejoin:miter;stroke-miterlimit:4;stroke-dasharray:none;stroke-opacity:1" />
    <path
       style="fill:none;fill-opacity:1;stroke:#333333;stroke-width:0.5;stroke-linejoin:round;stroke-miterlimit:4;stroke-dasharray:none;stroke-opacity:1"
       d="m 46,950.36216 c 0,-1.10457 0.895431,-2 2,-2"
       id="path4937" />
    <path
       id="path4947"
       d="m 62,948.36216 -14,0"
       style="fill:none;fill-rule:evenodd;stroke:#333333;stroke-width:0.5;stroke-linecap:butt;stroke-linejoin:miter;stroke-opacity:1;stroke-miterlimit:4;stroke-dasharray:none" />
    <path
       id="path4949"
       d="m 62,948.36216 c 1.10457,0 2,0.89543 2,2"
       style="fill:none;fill-opacity:1;stroke:#333333;stroke-width:0.5;stroke-linejoin:round;stroke-miterlimit:4;stroke-dasharray:none;stroke-opacity:1" />
    <path
       style="fill:#333333;fill-rule:evenodd;stroke:#333333;stroke-width:0.5;stroke-linecap:butt;stroke-linejoin:miter;stroke-miterlimit:4;stroke-dasharray:none;stroke-opacity:1"
       d="m 64,954.36216 0,-4"
       id="path4951" />
    <path
       id="path4953"
       d="m 66,956.36216 c -1.10457,0 -2,-0.89543 -2,-2"
       style="fill:none;fill-opacity:1;stroke:#333333;stroke-width:0.5;stroke-linejoin:round;stroke-miterlimit:4;stroke-dasharray:none;stroke-opacity:1" />
    <path
       id="path4955"
       d="m 122,956.36216 c -1.10457,0 -2,-0.89543 -2,-2"
       style="fill:none;fill-opacity:1;stroke:#333333;stroke-width:0.5;stroke-linejoin:round;stroke-miterlimit:4;stroke-dasharray:none;stroke-opacity:1" />
    <path
       style="fill:none;fill-rule:evenodd;stroke:#333333;stroke-width:0.5;stroke-linecap:butt;stroke-linejoin:miter;stroke-miterlimit:4;stroke-dasharray:none;stroke-opacity:1"
       d="m 122,956.36216 2,0 0,0 0,0"
       id="path4957" />
    <path
       id="path4959"
       d="m 120,954.36216 0,-4"
       style="fill:#333333;fill-rule:evenodd;stroke:#333333;stroke-width:0.5;stroke-linecap:butt;stroke-linejoin:miter;stroke-miterlimit:4;stroke-dasharray:none;stroke-opacity:1" />
    <path
       style="fill:none;fill-opacity:1;stroke:#333333;stroke-width:0.5;stroke-linejoin:round;stroke-miterlimit:4;stroke-dasharray:none;stroke-opacity:1"
       d="m 118,948.36216 c 1.10457,0 2,0.89543 2,2"
       id="path4961" />
    <path
       id="path4973"
       d="m 102,948.36216 16,0"
       style="fill:none;fill-rule:evenodd;stroke:#333333;stroke-width:0.5;stroke-linecap:butt;stroke-linejoin:miter;stroke-opacity:1;stroke-miterlimit:4;stroke-dasharray:none" />
    <path
       id="path4975"
       d="m 100,950.36216 c 0,-1.10457 0.89543,-2 2,-2"
       style="fill:none;fill-opacity:1;stroke:#333333;stroke-width:0.5;stroke-linejoin:round;stroke-miterlimit:4;stroke-dasharray:none;stroke-opacity:1" />
    <path
       style="fill:#333333;fill-rule:evenodd;stroke:#333333;stroke-width:0.5;stroke-linecap:butt;stroke-linejoin:miter;stroke-miterlimit:4;stroke-dasharray:none;stroke-opacity:1"
       d="m 100,954.36216 0,-4"
       id="path4977" />
    <path
       style="fill:none;fill-opacity:1;stroke:#333333;stroke-width:0.5;stroke-linejoin:round;stroke-miterlimit:4;stroke-dasharray:none;stroke-opacity:1"
       d="m 100,954.36216 c 0,1.10457 -0.89543,2 -2,2"
       id="path4979" />
    <path
       id="path4981"
       d="m 44,956.36216 22,0"
       style="fill:none;fill-rule:evenodd;stroke:#333333;stroke-width:0.5;stroke-linecap:butt;stroke-linejoin:miter;stroke-miterlimit:4;stroke-dasharray:none;stroke-opacity:1" />
    <path
       transform="translate(0,924.36216)"
       id="path4993"
       d="m 45.894136,31.271427 0.301066,-0.454511 0.05446,-2.622382 c 0.0598,-2.879501 0.102835,-3.073286 0.797576,-3.591246 0.30465,-0.22713 0.375896,-0.229486 7.820903,-0.258644 8.320747,-0.03259 7.991814,-0.05845 8.510796,0.669124 0.230408,0.323013 0.246,0.475171 0.302779,2.954549 0.03292,1.437699 0.101438,2.712022 0.152253,2.831831 0.05082,0.119808 0.210168,0.377123 0.354118,0.571812 l 0.261728,0.353978 -9.428372,0 -9.428371,0 0.301066,-0.454511 z m 5.32212,-2.638719 0.370316,-0.370316 0,-1.481266 0,-1.481265 -0.272291,0 -0.272292,0 0,1.415915 c 0,1.270694 -0.02234,1.438258 -0.217833,1.633749 -0.26867,0.26867 -0.770864,0.281376 -1.076179,0.02723 -0.208126,-0.173245 -0.231543,-0.319553 -0.257129,-1.606519 -0.02735,-1.375647 -0.03512,-1.416906 -0.273211,-1.45072 -0.24423,-0.03469 -0.245063,-0.02957 -0.245063,1.505981 l 0,1.540785 0.318372,0.318372 c 0.277109,0.277108 0.398508,0.318371 0.936682,0.318371 0.557955,0 0.654459,-0.03615 0.988628,-0.370316 z m 2.76648,0.152483 c 0.134299,-0.134299 0.217834,-0.363055 0.217834,-0.59653 0,-0.433896 -0.218279,-0.621117 -0.948422,-0.813479 -0.508297,-0.133915 -0.609033,-0.229828 -0.510653,-0.486202 0.111596,-0.290814 0.914492,-0.193587 0.914492,0.110741 0,0.08922 0.11216,0.151722 0.272291,0.151722 0.524939,0 0.263242,-0.647019 -0.357091,-0.882869 -0.39584,-0.150498 -0.9773,-0.0028 -1.224111,0.310996 -0.425506,0.540943 -0.213246,0.932564 0.659694,1.21714 0.501122,0.163364 0.594758,0.235004 0.594758,0.45504 0,0.2143 -0.06269,0.267212 -0.349426,0.29494 -0.247101,0.02389 -0.405691,-0.03192 -0.54156,-0.190604 -0.20067,-0.234366 -0.688304,-0.310241 -0.688304,-0.1071 0,0.06451 0.143267,0.260562 0.318372,0.435667 0.268271,0.268271 0.405387,0.318371 0.871332,0.318371 0.407739,0 0.61017,-0.05721 0.770794,-0.217833 z m 2.662407,-0.0147 c 0.266861,-0.209914 0.279215,-0.248937 0.126995,-0.401157 -0.15222,-0.15222 -0.188329,-0.15079 -0.371193,0.0147 -0.303355,0.274532 -0.732057,0.229844 -0.994388,-0.103656 -0.124156,-0.157839 -0.225738,-0.329382 -0.225738,-0.381208 0,-0.05183 0.392099,-0.09423 0.871332,-0.09423 l 0.871333,0 0,-0.386617 c 0,-0.564644 -0.261208,-0.990774 -0.695097,-1.133971 -0.48574,-0.160308 -0.842802,-0.06175 -1.226237,0.338469 -0.277541,0.28969 -0.311456,0.402375 -0.311456,1.03483 0,0.663947 0.02295,0.730246 0.355697,1.027556 0.451355,0.403285 1.147282,0.440408 1.598752,0.08528 z m 1.25859,-0.74154 c 0,-0.88311 0.02261,-0.989906 0.242068,-1.143624 0.133136,-0.09325 0.332595,-0.169551 0.443241,-0.169551 0.146327,0 0.191685,-0.06681 0.166369,-0.245062 -0.02708,-0.190709 -0.0952,-0.237704 -0.307095,-0.211886 -0.149761,0.01825 -0.456088,0.02932 -0.680729,0.0246 l -0.408437,-0.0086 0,1.364088 0,1.364088 0.272291,0 c 0.270147,0 0.272292,-0.0077 0.272292,-0.974073 z m 3.000156,0.706733 c 0.52583,-0.525831 0.285345,-1.007618 -0.674342,-1.350968 -0.387215,-0.138535 -0.528691,-0.24606 -0.528691,-0.401816 0,-0.317726 0.647575,-0.360857 0.838074,-0.05582 0.152927,0.244873 0.6323,0.309483 0.6323,0.08522 0,-0.524167 -0.837792,-0.940963 -1.47121,-0.731916 -0.414062,0.136653 -0.598205,0.380622 -0.598205,0.792557 0,0.336812 0.262928,0.566613 0.845397,0.738883 0.574218,0.16983 0.76053,0.363208 0.570519,0.592157 -0.198341,0.238985 -0.733657,0.206471 -0.896609,-0.05446 -0.162092,-0.259549 -0.628223,-0.296283 -0.628223,-0.04951 0,0.09258 0.120303,0.288629 0.267341,0.435667 0.213825,0.213825 0.378335,0.26734 0.821824,0.26734 0.44349,0 0.608,-0.05352 0.821825,-0.26734 z"
       style="fill:none;fill-opacity:1;stroke:none;stroke-width:0.05445828;stroke-linejoin:round;stroke-miterlimit:4;stroke-dasharray:none;stroke-opacity:1" />
    <path
       transform="translate(0,924.36216)"
       id="path5020"
       d="m 45.42874,31.754332 c 0,-0.01059 0.07038,-0.08964 0.156406,-0.17566 0.220983,-0.220983 0.446396,-0.584484 0.546029,-0.880528 0.08332,-0.247562 0.08561,-0.305533 0.105328,-2.659817 0.01969,-2.351411 0.02206,-2.411382 0.103024,-2.608708 0.273266,-0.666016 0.764959,-1.069104 1.418936,-1.16324 0.369284,-0.05316 14.109658,-0.05316 14.478941,0 0.645367,0.0929 1.185417,0.529353 1.419185,1.146953 0.08044,0.212504 0.08312,0.281687 0.10187,2.624995 l 0.01926,2.406739 0.10379,0.28422 c 0.119148,0.326278 0.2968,0.609188 0.525968,0.837603 0.08781,0.08752 0.159653,0.169831 0.159653,0.182913 0,0.01308 -4.306138,0.02378 -9.569194,0.02378 -5.263057,0 -9.569194,-0.0087 -9.569194,-0.01925 z"
       style="fill:#cccccc;fill-opacity:1;stroke:#000000;stroke-width:0.01925391;stroke-linejoin:round;stroke-miterlimit:4;stroke-dasharray:none;stroke-opacity:1" />
    <flowRoot
       transform="translate(0.02539062,925.16717)"
       style="color:#000000;font-style:normal;font-variant:normal;font-weight:normal;font-stretch:normal;font-size:10px;line-height:125%;font-family:Roboto;-inkscape-font-specification:'Roboto, Normal';text-align:start;letter-spacing:0px;word-spacing:0px;writing-mode:lr-tb;text-anchor:start;clip-rule:nonzero;display:inline;overflow:visible;visibility:visible;opacity:1;isolation:auto;mix-blend-mode:normal;color-interpolation:sRGB;color-interpolation-filters:linearRGB;solid-color:#000000;solid-opacity:1;fill:#333333;fill-opacity:1;fill-rule:nonzero;stroke:none;stroke-width:1px;stroke-linecap:butt;stroke-linejoin:miter;stroke-miterlimit:4;stroke-dasharray:none;stroke-dashoffset:0;stroke-opacity:1;color-rendering:auto;image-rendering:auto;shape-rendering:auto;text-rendering:auto;enable-background:accumulate"
       id="flowRoot4939"
       xml:space="preserve"><flowRegion
         id="flowRegion4941"><rect
           y="23.19499"
           x="45.974609"
           height="8.0000019"
           width="18"
           id="rect4943" /></flowRegion><flowPara
         style="font-size:5px;text-align:center;text-anchor:middle"
         id="flowPara4945">Users</flowPara></flowRoot>    <path
       id="path5022"
       d="m 98,956.36216 24,0"
       style="fill:none;fill-rule:evenodd;stroke:#333333;stroke-width:0.5;stroke-linecap:butt;stroke-linejoin:miter;stroke-opacity:1;stroke-miterlimit:4;stroke-dasharray:none" />
    <path
       transform="translate(0,924.36216)"
       id="path5024"
       d="m 99.86834,31.163887 0.34948,-0.562052 0.0266,-2.460383 c 0.0146,-1.353211 0.0514,-2.566884 0.0816,-2.697051 0.0831,-0.3574 0.59948,-0.917985 0.99954,-1.085141 0.28977,-0.121072 1.89386,-0.148565 8.6681,-0.148565 l 8.31254,0 0.48553,0.245063 c 0.31991,0.161471 0.56866,0.393668 0.72924,0.680728 0.23104,0.412993 0.24385,0.557537 0.24612,2.777373 0.003,2.503003 0.0695,2.964137 0.50518,3.481947 l 0.27778,0.330132 -10.51563,0 -10.515631,0 0.349481,-0.562051 z"
       style="fill:#cccccc;fill-opacity:1;stroke:#333333;stroke-width:0.05445828;stroke-linejoin:round;stroke-miterlimit:4;stroke-dasharray:none;stroke-opacity:1" />
    <flowRoot
       transform="translate(16.15332,924.26483)"
       style="color:#000000;font-style:normal;font-variant:normal;font-weight:normal;font-stretch:normal;font-size:10px;line-height:125%;font-family:Roboto;-inkscape-font-specification:'Roboto, Normal';text-align:start;letter-spacing:0px;word-spacing:0px;writing-mode:lr-tb;text-anchor:start;clip-rule:nonzero;display:inline;overflow:visible;visibility:visible;opacity:1;isolation:auto;mix-blend-mode:normal;color-interpolation:sRGB;color-interpolation-filters:linearRGB;solid-color:#000000;solid-opacity:1;fill:#333333;fill-opacity:1;fill-rule:nonzero;stroke:none;stroke-width:1px;stroke-linecap:butt;stroke-linejoin:miter;stroke-miterlimit:4;stroke-dasharray:none;stroke-dashoffset:0;stroke-opacity:1;color-rendering:auto;image-rendering:auto;shape-rendering:auto;text-rendering:auto;enable-background:accumulate"
       id="flowRoot4963"
       xml:space="preserve"><flowRegion
         id="flowRegion4965"><rect
           ry="0"
           y="24.09733"
           x="83.84668"
           height="8"
           width="20"
           id="rect4967" /></flowRegion><flowPara
         style="font-size:5px;text-align:center;text-anchor:middle"
         id="flowPara4969">Admin</flowPara></flowRoot>    <path
       id="path5026"
       d="m 66,956.36216 32,0"
       style="fill:none;fill-rule:evenodd;stroke:#333333;stroke-width:0.5;stroke-linecap:butt;stroke-linejoin:miter;stroke-opacity:1;stroke-miterlimit:4;stroke-dasharray:none" />
    <flowRoot
       transform="translate(0,924.36216)"
       style="color:#000000;font-style:normal;font-variant:normal;font-weight:normal;font-stretch:normal;font-size:10px;line-height:125%;font-family:Roboto;-inkscape-font-specification:'Roboto, Normal';text-align:start;letter-spacing:0px;word-spacing:0px;writing-mode:lr-tb;text-anchor:start;clip-rule:nonzero;display:inline;overflow:visible;visibility:visible;opacity:1;isolation:auto;mix-blend-mode:normal;color-interpolation:sRGB;color-interpolation-filters:linearRGB;solid-color:#000000;solid-opacity:1;fill:#333333;fill-opacity:1;fill-rule:nonzero;stroke:none;stroke-width:1px;stroke-linecap:butt;stroke-linejoin:miter;stroke-miterlimit:4;stroke-dasharray:none;stroke-dashoffset:0;stroke-opacity:1;color-rendering:auto;image-rendering:auto;shape-rendering:auto;text-rendering:auto;enable-background:accumulate;"
       id="flowRoot5028"
       xml:space="preserve"><flowRegion
         id="flowRegion5030"><rect
           style="fill:#333333;"
           y="40"
           x="20"
           height="76"
           width="64"
           id="rect5032" /></flowRegion><flowPara
         style="font-size:5px;fill:#333333;"
         id="flowPara5036">Marco Scannadinari</flowPara><flowPara
         style="font-size:5px;fill:#333333;"
         id="flowPara5040">John Doe</flowPara><flowPara
         style="font-size:5px;fill:#333333;"
         id="flowPara5048">Peter Banterson</flowPara><flowPara
         style="font-size:5px;fill:#333333;"
         id="flowPara5044">Alan Sugar</flowPara></flowRoot>    <flowRoot
       transform="translate(0,924.36216)"
       style="color:#000000;font-style:normal;font-variant:normal;font-weight:normal;font-stretch:normal;font-size:5px;line-height:125%;font-family:Roboto;-inkscape-font-specification:'Roboto, Normal';text-align:start;letter-spacing:0px;word-spacing:0px;writing-mode:lr-tb;text-anchor:start;clip-rule:nonzero;display:inline;overflow:visible;visibility:visible;opacity:1;isolation:auto;mix-blend-mode:normal;color-interpolation:sRGB;color-interpolation-filters:linearRGB;solid-color:#000000;solid-opacity:1;fill:#808080;fill-opacity:1;fill-rule:nonzero;stroke:none;stroke-width:1px;stroke-linecap:butt;stroke-linejoin:miter;stroke-miterlimit:4;stroke-dasharray:none;stroke-dashoffset:0;stroke-opacity:1;color-rendering:auto;image-rendering:auto;shape-rendering:auto;text-rendering:auto;enable-background:accumulate;"
       id="flowRoot5050"
       xml:space="preserve"><flowRegion
         id="flowRegion5052"><rect
           style="font-size:5px;fill:#808080"
           y="40"
           x="7"
           height="38"
           width="11"
           id="rect5054" /></flowRegion><flowPara
         style="text-anchor:end;text-align:end"
         id="flowPara5070">1st</flowPara><flowPara
         style="text-anchor:end;text-align:end"
         id="flowPara5078">2nd</flowPara><flowPara
         style="text-anchor:end;text-align:end"
         id="flowPara5080">3rd</flowPara><flowPara
         style="text-anchor:end;text-align:end"
         id="flowPara5082">4th</flowPara></flowRoot>    <flowRoot
       transform="translate(0,924.36216)"
       style="color:#000000;font-style:normal;font-variant:normal;font-weight:normal;font-stretch:normal;font-size:10px;line-height:125%;font-family:Roboto;-inkscape-font-specification:'Roboto, Normal';text-align:end;letter-spacing:0px;word-spacing:0px;writing-mode:lr-tb;text-anchor:end;clip-rule:nonzero;display:inline;overflow:visible;visibility:visible;opacity:1;isolation:auto;mix-blend-mode:normal;color-interpolation:sRGB;color-interpolation-filters:linearRGB;solid-color:#000000;solid-opacity:1;fill:#000000;fill-opacity:0;fill-rule:nonzero;stroke:none;stroke-width:1px;stroke-linecap:butt;stroke-linejoin:miter;stroke-miterlimit:4;stroke-dasharray:none;stroke-dashoffset:0;stroke-opacity:1;color-rendering:auto;image-rendering:auto;shape-rendering:auto;text-rendering:auto;enable-background:accumulate;"
       id="flowRoot5093"
       xml:space="preserve"><flowRegion
         id="flowRegion5095"><rect
           style="text-align:end;text-anchor:end;fill:#000000;fill-opacity:0;"
           y="40"
           x="78"
           height="73"
           width="38"
           id="rect5097" /></flowRegion><flowPara
         id="flowPara5099" /></flowRoot>    <flowRoot
       transform="translate(0,924.36216)"
       style="color:#000000;font-style:normal;font-variant:normal;font-weight:normal;font-stretch:normal;font-size:10px;line-height:125%;font-family:Roboto;-inkscape-font-specification:'Roboto, Normal';text-align:start;letter-spacing:0px;word-spacing:0px;writing-mode:lr-tb;text-anchor:start;clip-rule:nonzero;display:inline;overflow:visible;visibility:visible;opacity:1;isolation:auto;mix-blend-mode:normal;color-interpolation:sRGB;color-interpolation-filters:linearRGB;solid-color:#000000;solid-opacity:1;fill:#333333;fill-opacity:1;fill-rule:nonzero;stroke:none;stroke-width:1px;stroke-linecap:butt;stroke-linejoin:miter;stroke-miterlimit:4;stroke-dasharray:none;stroke-dashoffset:0;stroke-opacity:1;color-rendering:auto;image-rendering:auto;shape-rendering:auto;text-rendering:auto;enable-background:accumulate;"
       id="flowRoot5109"
       xml:space="preserve"><flowRegion
         id="flowRegion5111"><rect
           style="fill:#333333;"
           y="40"
           x="84"
           height="67"
           width="32"
           id="rect5113" /></flowRegion><flowPara
         style="font-size:5px;text-align:end;text-anchor:end;fill:#333333;"
         id="flowPara5117">1024 points</flowPara><flowPara
         style="font-size:5px;text-align:end;text-anchor:end;fill:#333333;"
         id="flowPara5121">768 points</flowPara><flowPara
         style="font-size:5px;text-align:end;text-anchor:end;fill:#333333;"
         id="flowPara5123">512 points</flowPara><flowPara
         style="font-size:5px;text-align:end;text-anchor:end;fill:#333333;"
         id="flowPara5125">24 points</flowPara></flowRoot>    <flowRoot
       transform="translate(-15.792903,921.31249)"
       style="color:#000000;font-style:normal;font-variant:normal;font-weight:normal;font-stretch:normal;font-size:3.75px;line-height:125%;font-family:Ubuntu;-inkscape-font-specification:Ubuntu;text-align:start;letter-spacing:0px;word-spacing:0px;writing-mode:lr-tb;text-anchor:start;clip-rule:nonzero;display:inline;overflow:visible;visibility:visible;opacity:1;isolation:auto;mix-blend-mode:normal;color-interpolation:sRGB;color-interpolation-filters:linearRGB;solid-color:#000000;solid-opacity:1;fill:#333333;fill-opacity:1;fill-rule:nonzero;stroke:none;stroke-width:1px;stroke-linecap:butt;stroke-linejoin:miter;stroke-miterlimit:4;stroke-dasharray:none;stroke-dashoffset:0;stroke-opacity:1;color-rendering:auto;image-rendering:auto;shape-rendering:auto;text-rendering:auto;enable-background:accumulate"
       id="flowRoot5127"
       xml:space="preserve"><flowRegion
         id="flowRegion5129"><rect
           style="font-style:normal;font-variant:normal;font-weight:normal;font-stretch:normal;font-size:3.75px;font-family:Ubuntu;-inkscape-font-specification:Ubuntu"
           y="77.680542"
           x="24.72406"
           height="35.506802"
           width="62.844864"
           id="rect5131" /></flowRegion><flowPara
         style="font-style:italic;font-variant:normal;font-weight:normal;font-stretch:normal;font-size:3.75px;font-family:'Fantasque Sans Mono';-inkscape-font-specification:'Fantasque Sans Mono Italic'"
         id="flowPara5133">These could be hyperlinks to the users' profile pages which would then reveal more statistics about them such as their response times for questions, and their percentage of questions they answer correctly</flowPara></flowRoot>    <flowRoot
       xml:space="preserve"
       id="flowRoot5167"
       style="color:#000000;font-style:normal;font-variant:normal;font-weight:normal;font-stretch:normal;font-size:3.75px;line-height:125%;font-family:Ubuntu;-inkscape-font-specification:Ubuntu;text-align:start;letter-spacing:0px;word-spacing:0px;writing-mode:lr-tb;text-anchor:start;clip-rule:nonzero;display:inline;overflow:visible;visibility:visible;opacity:1;isolation:auto;mix-blend-mode:normal;color-interpolation:sRGB;color-interpolation-filters:linearRGB;solid-color:#000000;solid-opacity:1;fill:#333333;fill-opacity:1;fill-rule:nonzero;stroke:none;stroke-width:1px;stroke-linecap:butt;stroke-linejoin:miter;stroke-miterlimit:4;stroke-dasharray:none;stroke-dashoffset:0;stroke-opacity:1;color-rendering:auto;image-rendering:auto;shape-rendering:auto;text-rendering:auto;enable-background:accumulate"
       transform="translate(53.804784,926.54048)"><flowRegion
         id="flowRegion5169"><rect
           id="rect5171"
           width="43.784466"
           height="32.13039"
           x="24.72406"
           y="77.680542"
           style="font-style:normal;font-variant:normal;font-weight:normal;font-stretch:normal;font-size:3.75px;font-family:Ubuntu;-inkscape-font-specification:Ubuntu" /></flowRegion><flowPara
         id="flowPara5173"
         style="font-style:italic;font-variant:normal;font-weight:normal;font-stretch:normal;font-size:3.75px;font-family:'Fantasque Sans Mono';-inkscape-font-specification:'Fantasque Sans Mono Italic'">The points that a user has would be an aggregate score of their statistics gathered by twbot</flowPara></flowRoot>    <path
       d="m 55.730677,997.09648 c 0.1167,-0.28438 0.180001,-0.58684 0.219521,-0.89061 0.03131,-0.2748 0.0335,-0.55159 0.03509,-0.82781 0.0016,-0.29036 -0.05291,-0.57827 -0.104452,-0.86309 -0.05763,-0.33637 -0.139751,-0.67238 -0.254854,-0.99386 -0.116004,-0.37994 -0.243764,-0.75625 -0.327514,-1.14494 -0.07919,-0.31154 -0.154403,-0.62453 -0.21094,-0.94103 -0.03483,-0.34828 -0.178853,-0.67059 -0.273643,-1.0045 -0.09426,-0.30876 -0.184702,-0.6191 -0.26113,-0.93281 -0.06625,-0.27381 -0.20848,-0.52026 -0.321171,-0.77662 -0.247196,-0.56436 0.550932,-0.91395 0.798128,-0.34959 l 0,0 c 0.132273,0.30328 0.298502,0.5949 0.369877,0.92105 0.0731,0.30378 0.162765,0.60356 0.253221,0.90254 0.100153,0.36231 0.258354,0.71079 0.292913,1.0892 0.05266,0.30658 0.130627,0.60839 0.204969,0.91028 0.07422,0.35386 0.196054,0.69465 0.298531,1.04095 0.124207,0.3662 0.227131,0.74218 0.289035,1.12426 0.06104,0.33766 0.121301,0.67897 0.118348,1.02326 -0.0019,0.31312 -0.0056,0.62686 -0.04277,0.9382 -0.05213,0.38184 -0.132779,0.7615 -0.282285,1.11835 -0.242704,0.56631 -1.043585,0.22308 -0.800881,-0.34323 z"
       id="path5235"
       style="fill:#666666;fill-opacity:1;stroke:none;stroke-width:0.5;stroke-linejoin:round;stroke-miterlimit:4;stroke-dasharray:none;stroke-opacity:1" />
    <path
       d="m 95.410914,1002.3481 c 0.0138,-0.4716 -0.0091,-0.9409 -0.04785,-1.4107 -0.01345,-0.3369 -0.0802,-0.6672 -0.120059,-1.00129 -0.03938,-0.38144 -0.04495,-0.76519 -0.04916,-1.1483 -0.0028,-0.40607 -0.0018,-0.81215 -0.0015,-1.21823 3.86e-4,-0.42703 5.36e-4,-0.85406 6.3e-4,-1.28109 6.5e-5,-0.36108 6.3e-5,-0.72217 6.3e-5,-1.08325 0.04792,-0.42772 0.158959,-0.84707 0.272757,-1.2615 0.09077,-0.35309 0.163687,-0.70977 0.285726,-1.05377 0.142238,-0.31183 0.304997,-0.61438 0.468746,-0.91544 0.294844,-0.54099 1.059929,-0.12402 0.765085,0.41697 l 0,0 c -0.143216,0.26218 -0.281721,0.5272 -0.414435,0.7948 -0.11934,0.32094 -0.172917,0.6607 -0.265336,0.98977 -0.09468,0.33915 -0.177475,0.68293 -0.241211,1.02917 0,0.36115 3e-6,0.7223 -6.2e-5,1.08344 -9.4e-5,0.42721 -2.44e-4,0.85442 -6.31e-4,1.28164 -3.39e-4,0.40266 -0.0013,0.80534 0.0014,1.208 0.0038,0.35209 0.0083,0.70479 0.04318,1.05547 0.04028,0.34431 0.109852,0.68481 0.123144,1.03201 0.04062,0.4936 0.06451,0.9869 0.05079,1.4823 0,0.6161 -0.871332,0.6161 -0.871332,0 z"
       id="path5237"
       style="fill:#666666;fill-opacity:1;stroke:none;stroke-width:0.5;stroke-linejoin:round;stroke-miterlimit:4;stroke-dasharray:none;stroke-opacity:1" />
  </g>
</svg>
